:FULLY-SPECIFIED
:FORCE-ALL-JOINTS-BE-3DOF
:DEGREES
747
root 4.13701 16.9349 14.5554 -183.409 -8.33012 175.979
lfemur -31.3667 2.54238 -16.4931
ltibia 34.2837 0 0
lfoot -14.1209 -2.08733 0
ltoes 13.0781 0 0
rfemur -25.503 -34.8492 7.17478
rtibia 113.649 0 0
rfoot 28.7793 6.82499 0
rtoes 32.8762 0 0
lowerback 1.80589 7.35284 -1.48292
upperback -1.62053 9.72328 -2.52066
thorax -2.45101 4.87046 -2.16149
lowerneck -6.73477 -8.77741 -1.72751
upperneck -1.65962 -11.6184 4.79781
head 1.02203 -5.72555 1.42251
lclavicle -1.72488e-15 -4.11244e-14 0
lhumerus -57.1625 -14.3067 72.4881
lradius 54.6035 0 0
lwrist 16.1121 0 0
lhand -27.1762 -6.67448 0
lfingers 7.12502 0 0
lthumb -0.590241 23.2813 0
rclavicle -1.72488e-15 -4.11244e-14 0
rhumerus 17.311 35.1799 -73.18
rradius 88.6635 0 0
rwrist -0.439442 0 0
rhand -22.9524 -23.4013 0
rfingers 7.12502 0 0
rthumb 3.48763 -773.25 0
748
root 4.11568 16.8263 14.659 -184.244 -7.18184 174.305
lfemur -32.6369 4.27474 -17.4565
ltibia 37.2049 0 0
lfoot -16.3049 -0.84055 0
ltoes 12.8101 0 0
rfemur -25.5469 -34.6899 8.69559
rtibia 111.71 0 0
rfoot 28.0551 5.98352 0
rtoes 33.317 0 0
lowerback 2.09355 7.16443 -1.82396
upperback -1.48365 9.46071 -2.63151
thorax -2.50522 4.74736 -2.09903
lowerneck -6.58278 -8.85433 -1.78446
upperneck -1.62531 -11.709 4.98982
head 1.02642 -5.76196 1.49381
lclavicle -6.79147e-15 -3.78711e-14 0
lhumerus -56.2191 -13.9603 74.1168
lradius 55.0525 0 0
lwrist 15.757 0 0
lhand -27.6305 -6.87548 0
lfingers 7.12502 0 0
lthumb -1.02902 23.0822 0
rclavicle -6.79147e-15 -3.78711e-14 0
rhumerus 14.7138 37.1474 -75.5288
rradius 88.6527 0 0
rwrist 0.199482 0 0
rhand -22.2683 -22.7856 0
rfingers 7.12502 0 0
rthumb 4.14813 -772.626 0
749
root 4.08975 16.7223 14.764 -184.635 -5.89464 173.007
lfemur -33.9111 6.0051 -18.3802
ltibia 40.1625 0 0
lfoot -18.458 0.443488 0
ltoes 12.5838 0 0
rfemur -25.5731 -34.473 10.2243
rtibia 109.622 0 0
rfoot 27.2079 5.0149 0
rtoes 33.6147 0 0
lowerback 2.37961 6.96344 -2.15993
upperback -1.34703 9.18151 -2.74364
thorax -2.55836 4.61587 -2.03928
lowerneck -6.42929 -8.9229 -1.83934
upperneck -1.59331 -11.7886 5.18132
head 1.02926 -5.79298 1.56509
lclavicle -1.15911e-14 -3.44967e-14 0
lhumerus -55.2269 -13.6182 75.7207
lradius 55.5268 0 0
lwrist 15.4024 0 0
lhand -28.0546 -7.0681 0
lfingers 7.12502 0 0
lthumb -1.43857 22.8913 0
rclavicle -1.15911e-14 -3.44967e-14 0
rhumerus 12.0017 39.0819 -77.895
rradius 88.631 0 0
rwrist 0.837185 0 0
rhand -21.5983 -22.1806 0
rfingers 7.12502 0 0
rthumb 4.79514 -772.013 0
750
root 4.05746 16.6216 14.8748 -184.516 -4.39211 172.187
lfemur -35.1786 7.7316 -19.2663
ltibia 43.1188 0 0
lfoot -20.5721 1.76789 0
ltoes 12.3979 0 0
rfemur -25.5715 -34.2118 11.757
rtibia 107.383 0 0
rfoot 26.2236 3.91938 0
rtoes 33.7293 0 0
lowerback 2.65844 6.75445 -2.48687
upperback -1.21205 8.89204 -2.85712
thorax -2.60814 4.47907 -1.9845
lowerneck -6.2751 -8.98246 -1.89075
upperneck -1.56526 -11.8561 5.3706
head 1.02995 -5.81829 1.63562
lclavicle -1.6039e-14 -3.10546e-14 0
lhumerus -54.223 -13.28 77.3219
lradius 56.035 0 0
lwrist 15.0465 0 0
lhand -28.4421 -7.2514 0
lfingers 7.12502 0 0
lthumb -1.81282 22.7095 0
rclavicle -1.6039e-14 -3.10546e-14 0
rhumerus 9.19185 40.9878 -80.2965
rradius 88.5887 0 0
rwrist 1.47515 0 0
rhand -20.9479 -21.5857 0
rfingers 7.12502 0 0
rthumb 5.42314 -771.41 0
751
root 4.01705 16.5227 14.9956 -183.819 -2.59789 171.949
lfemur -36.4286 9.45237 -20.117
ltibia 46.036 0 0
lfoot -22.639 3.13577 0
ltoes 12.2512 0 0
rfemur -25.5322 -33.9199 13.2898
rtibia 104.989 0 0
rfoot 25.0879 2.69717 0
rtoes 33.6204 0 0
lowerback 2.92442 6.54204 -2.80082
upperback -1.08006 8.59863 -2.97201
thorax -2.65227 4.34004 -1.9369
lowerneck -6.121 -9.03234 -1.9373
upperneck -1.5428 -11.911 5.55597
head 1.02788 -5.83758 1.70467
lclavicle -2.00506e-14 -2.7598e-14 0
lhumerus -53.2448 -12.9448 78.9428
lradius 56.586 0 0
lwrist 14.6875 0 0
lhand -28.7868 -7.42444 0
lfingers 7.12502 0 0
lthumb -2.14571 22.5376 0
rclavicle -2.00506e-14 -2.7598e-14 0
rhumerus 6.3015 42.8694 -82.7511
rradius 88.516 0 0
rwrist 2.11484 0 0
rhand -20.323 -21.0003 0
rfingers 7.12502 0 0
rthumb 6.02662 -770.818 0
752
root 3.96676 16.4241 15.1309 -182.477 -0.435599 172.399
lfemur -37.6503 11.1655 -20.9345
ltibia 48.8762 0 0
lfoot -24.6506 4.55023 0
ltoes 12.1422 0 0
rfemur -25.445 -33.6104 14.8189
rtibia 102.437 0 0
rfoot 23.7865 1.3485 0
rtoes 33.2477 0 0
lowerback 3.17192 6.33082 -3.09782
upperback -0.952403 8.30765 -3.08839
thorax -2.68845 4.20186 -1.89871
lowerneck -5.96779 -9.07189 -1.97762
upperneck -1.52755 -11.9523 5.73573
head 1.02245 -5.85053 1.77148
lclavicle -2.35412e-14 -2.41804e-14 0
lhumerus -52.3296 -12.6122 80.6055
lradius 57.1886 0 0
lwrist 14.3237 0 0
lhand -29.0824 -7.5863 0
lfingers 7.12502 0 0
lthumb -2.43119 22.3765 0
rclavicle -2.35412e-14 -2.41804e-14 0
rhumerus 3.34777 44.7308 -85.2768
rradius 88.4031 0 0
rwrist 2.75775 0 0
rhand -19.7291 -20.424 0
rfingers 7.12502 0 0
rthumb 6.60007 -770.235 0
753
root 3.90485 16.3242 15.2848 -180.423 2.17115 173.641
lfemur -38.8329 12.8692 -21.721
ltibia 51.6015 0 0
lfoot -26.5988 6.01438 0
ltoes 12.0697 0 0
rfemur -25.3001 -33.2967 16.3403
rtibia 99.7238 0 0
rfoot 22.3052 -0.126389 0
rtoes 32.5712 0 0
lowerback 3.39531 6.12537 -3.37391
upperback -0.830447 8.02542 -3.20633
thorax -2.71439 4.06761 -1.87218
lowerneck -5.81625 -9.10045 -2.01029
upperneck -1.52115 -11.9792 5.90817
head 1.01304 -5.85682 1.83534
lclavicle -2.64261e-14 -2.08549e-14 0
lhumerus -51.5146 -12.2815 82.3323
lradius 57.8516 0 0
lwrist 13.9533 0 0
lhand -29.3226 -7.73604 0
lfingers 7.12502 0 0
lthumb -2.66319 22.2272 0
rclavicle -2.64261e-14 -2.08549e-14 0
rhumerus 0.347818 46.5765 -87.8912
rradius 88.2402 0 0
rwrist 3.40535 0 0
rhand -19.1721 -19.8562 0
rfingers 7.12502 0 0
rthumb 7.13796 -769.662 0
754
root 3.82955 16.2217 15.4619 -177.589 5.29873 175.777
lfemur -39.9656 14.5616 -22.4786
ltibia 54.1743 0 0
lfoot -28.4754 7.53132 0
ltoes 12.0324 0 0
rfemur -25.0873 -32.9923 17.8503
rtibia 96.8458 0 0
rfoot 20.6296 -1.72728 0
rtoes 31.5505 0 0
lowerback 3.58896 5.93027 -3.62513
upperback -0.715543 7.75831 -3.32589
thorax -2.72779 3.94036 -1.85953
lowerneck -5.66717 -9.11736 -2.03395
upperneck -1.52524 -11.9909 6.0716
head 0.999067 -5.85613 1.8955
lclavicle -2.86207e-14 -1.7675e-14 0
lhumerus -50.8372 -11.9521 84.1453
lradius 58.5837 0 0
lwrist 13.5748 0 0
lhand -29.5011 -7.87273 0
lfingers 7.12502 0 0
lthumb -2.83566 22.0904 0
rclavicle -2.86207e-14 -1.7675e-14 0
rhumerus -2.6812 48.4107 -90.6124
rradius 88.0176 0 0
rwrist 4.05912 0 0
rhand -18.6576 -19.2965 0
rfingers 7.12502 0 0
rthumb 7.6348 -769.098 0
755
root 3.7391 16.1151 15.6664 -173.909 9.02353 178.914
lfemur -41.0376 16.2407 -23.2096
ltibia 56.5566 0 0
lfoot -30.2722 9.10417 0
ltoes 12.0289 0 0
rfemur -24.7967 -32.7103 19.3448
rtibia 93.8 0 0
rfoot 18.7455 -3.45393 0
rtoes 30.1453 0 0
lowerback 3.74725 5.75012 -3.84752
upperback -0.609047 7.51265 -3.44716
thorax -2.72635 3.82321 -1.86299
lowerneck -5.52135 -9.12196 -2.04721
upperneck -1.54143 -11.9866 6.22431
head 0.979909 -5.84816 1.95122
lclavicle -3.00402e-14 -1.4694e-14 0
lhumerus -50.3346 -11.6234 86.0668
lradius 59.3939 0 0
lwrist 13.1862 0 0
lhand -29.6118 -7.99544 0
lfingers 7.12502 0 0
lthumb -2.94253 21.9671 0
rclavicle -3.00402e-14 -1.4694e-14 0
rhumerus -5.72211 50.2376 -93.458
rradius 87.7255 0 0
rwrist 4.72054 0 0
rhand -18.1914 -18.7444 0
rfingers 7.12502 0 0
rthumb 8.08507 -768.543 0
756
root 3.63176 16.0028 15.9026 -169.314 13.4219 183.154
lfemur -42.0381 17.9048 -23.916
ltibia 58.7107 0 0
lfoot -31.9812 10.736 0
ltoes 12.0578 0 0
rfemur -24.4183 -32.4643 20.8202
rtibia 90.5831 0 0
rfoot 16.6386 -5.30612 0
rtoes 28.3156 0 0
lowerback 3.86455 5.58951 -4.03713
upperback -0.512313 7.2948 -3.5702
thorax -2.70779 3.71923 -1.88479
lowerneck -5.37957 -9.1136 -2.04866
upperneck -1.57138 -11.9655 6.36461
head 0.954965 -5.83259 2.00178
lclavicle -3.05999e-14 -1.19651e-14 0
lhumerus -50.044 -11.2946 88.119
lradius 60.2909 0 0
lwrist 12.7859 0 0
lhand -29.6482 -8.10324 0
lfingers 7.12502 0 0
lthumb -2.97774 21.8581 0
rclavicle -3.05999e-14 -1.19651e-14 0
rhumerus -8.75777 52.0616 -96.4461
rradius 87.354 0 0
rwrist 5.39108 0 0
rhand -17.7791 -18.1992 0
rfingers 7.12502 0 0
rthumb 8.48325 -767.995 0
757
root 3.50576 15.8834 16.1749 -163.738 18.5703 188.602
lfemur -42.9564 19.5519 -24.6002
ltibia 60.5986 0 0
lfoot -33.5941 12.43 0
ltoes 12.1179 0 0
rfemur -23.942 -32.2674 22.2724
rtibia 87.1918 0 0
rfoot 14.2947 -7.28362 0
rtoes 26.0209 0 0
lowerback 3.93523 5.45303 -4.19
upperback -0.426697 7.11109 -3.69508
thorax -2.66981 3.6315 -1.92717
lowerneck -5.24262 -9.09161 -2.03693
upperneck -1.6167 -11.9268 6.4908
head 0.923631 -5.80909 2.04643
lclavicle -3.02153e-14 -9.54166e-15 0
lhumerus -50.0029 -10.9653 90.3241
lradius 61.2835 0 0
lwrist 12.3722 0 0
lhand -29.6042 -8.19519 0
lfingers 7.12502 0 0
lthumb -2.93523 21.7644 0
rclavicle -3.02153e-14 -9.54166e-15 0
rhumerus -11.771 53.887 -99.5944
rradius 86.8935 0 0
rwrist 6.07223 0 0
rhand -17.4264 -17.6606 0
rfingers 7.12502 0 0
rthumb 8.82384 -767.456 0
758
root 3.3749 15.7724 16.4451 -157.737 24.0077 194.607
lfemur -43.7289 21.079 -25.194
ltibia 62.1403 0 0
lfoot -34.9746 14.0985 0
ltoes 12.2472 0 0
rfemur -23.4335 -32.1281 23.5831
rtibia 83.9129 0 0
rfoot 11.9175 -9.30286 0
rtoes 23.4907 0 0
lowerback 3.96309 5.33836 -4.30741
upperback -0.35923 6.95805 -3.81544
thorax -2.62217 3.55812 -1.98252
lowerneck -5.11935 -9.06261 -2.01947
upperneck -1.67399 -11.8795 6.60083
head 0.888772 -5.78239 2.08512
lclavicle -2.86326e-14 -7.50474e-15 0
lhumerus -50.116 -10.6765 92.424
lradius 62.282 0 0
lwrist 11.9589 0 0
lhand -29.4999 -8.28197 0
lfingers 7.12502 0 0
lthumb -2.83451 21.6761 0
rclavicle -2.86326e-14 -7.50474e-15 0
rhumerus -14.5548 55.528 -102.57
rradius 86.4188 0 0
rwrist 6.7029 0 0
rhand -17.1625 -17.1656 0
rfingers 7.12502 0 0
rthumb 9.0787 -766.962 0
